/* XPM */
static char *diamond_block1686578736[] = {
/* columns rows colors chars-per-pixel */
"64 64 9 1 ",
"  c #0EBABD",
". c #15C2C6",
"X c #3DE0E5",
"o c #4BEDE6",
"O c #65F5E3",
"+ c #70FBF0",
"@ c #9EFEEB",
"# c #D5FFF6",
"$ c white",
/* pixels */
"ooooooooooooooooooXXXXXXXXXooooooXXXXXXXXXXXXXXXXXXXXXXoooooooo.",
"oOOOOOOOOOOOOOOOooooooooooOOOOOOOOOooooooooooooooooooooooooooo..",
"oO#$$$$$$$$$########@@@@@###########@@@@@@OOOOOOOOOOOO@@######..",
"oO$#@@@@@@@@@@@@@@@@@@@@###@+++++@@+++++OOOooooooooooooOOO+++#..",
"oO$@+++OOOOOOOOO+++++@@###@+++++@@+++++OOOoooooXXXooooOOO++++#..",
"oO$@++OOOOOOOOO+++++@@###@+++++@@+++++OOOooooXXXXooooOOO+++++#..",
"oO$@+OOOOOOOOO+++++@@###@+++++@@++++++OOoooXXXXXooooOOO++++++#..",
"oO$@OOOOOOOOO+++++@@###@+++++@@++++++OOooXXXXXoooooOOO+++++++#..",
"oO$@OOOOOOOO+++++@@###@+++++@@++++++OOooXXXXooooooOOO++++++++@..",
"oO$@OOOOOOO+++++@@###@+++++@@++++++OOooXXXoooooooOOO+++++++++@..",
"oO$@OOOOOO+++++@@###@+++++@@++++++OOooXXooooooooOOO++++++++++@..",
"oO$@OOOOO+++++@@##@@+++++@@++++++OOooXXooooooooOOO++++++++++O@..",
"oO#@OOOO+++++@@##@@+++++@@++++++OOooXoooooooooOOO++@+++++++OO@..",
"oO#@OOO+++++@@##@@+++++@@++++++OOooXoooooooooOOO++@+++++++OOO@..",
"oO#@OO+++++@@#@@@+++++@@++++++OOoooooooooooOOOO++@@++++++OOOO+..",
"oO#@O+++++@@#@@@+++++@@++++++OOooooooooooOOOOO++@@++++++OOOOO+..",
"oO#@+++++@@@@@@+++++@@++++++OOoooooooooOOOOOO++@@@+++++OOOOooO..",
"oO#@++++@@@@@@+++++@@++++++OOooooooooOOOOOOO++@@@+++++OOOOoooO..",
"Xo#@+++@@@@@@+++++@@++++++OOoooooooOOOOOOOO++@@@@++++OOOOoooXo..",
"Xo#@++@@@@@@+++++@@++++++OOooooooOOOOOOOOO++@@@@++++OOOOooooXo..",
"Xo#@+@@#@@@+++++@@++++++OOooooOOOOOOOOOOO++@@@@@+++OOOOooooXXo. ",
"Xo@@@@#@@@+++++@@++++++OOooOOO+OOOOOOOOO++@@@@@+++OOOOoooooXXX. ",
"Xo@@@#@@@+++++@@+++++++OoOOO++OOOOOOOOO++@@@@@+++OOOOoooooXXXX. ",
"Xo@@##@@+++++@@+++++++OOOO+++OOOOOOOOO++@@@@@+++OOOOOoooooXXXX. ",
"Xo@##@@+++++@@+++++++OO+++++OOOOOOOOO++@@@@++++OOOOOoooooXXXXX. ",
"Xo##@@+++++@@+++++++O++++++OOOOOOOOO++@@@+++++OOOOOOoooooXXXXo. ",
"oO#@@+++++@@+++++++O++++++OOOOOOOOO++@@++++++OOOOOOoooooXXXXXo. ",
"oO#@+++++@@++++++++++++++OOOOOOOOO++@+++++++OOOOOOOoooooXXXXoo. ",
"oO#+++++@@++++++++++++++OOOOOOOOO++++++++++OOOOOOOOooooXXXXXoO. ",
"oO#++++@@++++++++++++++OOOOOOOOO++++++++++OOOOOOOOoooooXXXXooO. ",
"oO#+++@@+++++++++++@++OOOOOOOOO++++++++++OOOOOOOOOooooXXXXXoOO. ",
"oO#++@@+++++++++++@++OOOOOOOOO++++++++++OOOOOOOOOOooooXXXXoOOO..",
"oO#+@@+++++++++++@++OOOOOOOOO++++++++++OOOOOOOOOOooooXXXXoOOOO..",
"oO#@@+++++++++++@++OOOOOOOOO++++++++++OOOOOOOOOOOooooXXXoOOOOO..",
"Xo#@+++++++++++@@+OOOOOOOOO++++++++++OOOOOOOOOOOOoooXXXoOO++OO..",
"Xo#+++++++++++@@+OOOOOOOOO++++++++++OOOOOOOOOOOOooooXooOO++OOO..",
"Xo@++++++++++@@+OOOOOOOOO++@+++++++OOOOOOOOOOOOOoooXooOO+++OOO. ",
"Xo@+++++O+++@@+OOOOOOOOO++@+++++++OOOOOOOOOOOOOoooooOOO+@++OOO..",
"Xo@++++O+++@@+OOOOOOOOO++@@++++++OOOOOOOOOOOOOOoooOOOO+@++OOOo. ",
"Xo@++OO+++@@+OOOOOOOOO++@@++++++OOOOOOOOOOOOOOooOOOOO+@@++OOOo. ",
"Xo@+OO++++@+OOOOOOOOO++@@@+++++OOOOOOOOOOOOOOoOOOOOO+@@++OOOOo. ",
"Xo+OO++++@+OOOOOOOOO++@@@+++++OOOOOOOOOOOOOOOOOOOOO+@@@++OOOoo. ",
"XoOOO+++@+OOOOOOOOO++@@@@++++OOOOOOOOOOOOOOOOOOOOO+@@@++OOOOoo. ",
"XoOO+++@+OOOOOOOOO++@@@@++++OOOOOOOOOOOOOOOOOOOOO+@@@++OOOOOoo. ",
"XoOO++++OOOOOOOOO++@@@@@+++OOOOOOOOOOOOOOOOOOOOO+@@@++OOOOOooo. ",
"XoO++++OOOOOOOOO++@@@@@+++OOOOOOOOOOOOOOOOOOOOO+@@@++OOOOOOooo. ",
"XoO+++OOOoOOOOO++@@@@@+++OOOOOOOOOoooOOOOOOoOO+@@@++OOOOOOoooo. ",
"XoO++OOOoOOOOO++@@@@@+++OOOOOOOOoooooooOOooOO+@@@++OOOOOOOoooo. ",
"Xoo+OOOooOOOO++@@@@@+++OOOOOOOooooooXoooooOO+@@+++OOOOOOOooooO..",
"XooOOOooOOOO++@@@@@+++OOOOOOoooooooXoooooOO+@++++OOOOOOOooooo+..",
"XoooOOooOOO++@@@@@+++OOOOOoooooooXXXooooOO++++++OOOOOOOoooooO+..",
"XoooOooOOO++@@@@++++OOOOoooooooXXXXooooOO+++++OOOOOOOOoooooo++..",
"XooooooOO++@@@+++++OOOOooooooXXXXXXoooOO+++OOOOOOOOOOooooooO++..",
"XoooooOO++@@++++++OOOOoooooXXXXXXXoooOO++OOOOOOOOOOOooooooo+++. ",
"XooooOO++@++++++OOOOOooooXXXXXXXXoooOO+OOOOOOOOOOOOoooooooO+++. ",
"XoooOO++@+++++OOOOOOooooXXXXXXXXoooOOOOOOOOOOOOOOOoooooooO++++. ",
"XooXO+++++++OOOOOOOooooXXXXXXXXoooOOOOOOOOOOOOOOOoooooooO++++@..",
"XoXXoOO+++OOOOOOOOooooXXXXXXXXoooOOOOOOOOOOOOOOOoooooooO+++++@..",
"XoXXXoOOOOOOOOOOOooooXXXXXXXXoooOOOOOOOOOOOOOOooooooooO++++++@. ",
"XoXXXXXoOOOOOOOOooooXXXXXXXXoooOOOOOOOOOOOOOooooooooO++++++++@. ",
"XooXXXXXXoOOOOOooooXXXXXXXXoooOOOOOOOOOOOoooooooooO++++++++++@. ",
"XooooXXXXXXoooooooXXXXXXXooooOOOOOOOOOooooooooooO+++++++@@@@@@. ",
"X.............................................................. ",
".................             ......            ......  ...     "
};
