/* XPM */
static char *bricks1686578736[] = {
/* columns rows colors chars-per-pixel */
"64 64 9 1 ",
"  c #C66851",
". c #B1624D",
"X c #9B5643",
"o c #8B6E67",
"O c #8F503F",
"+ c #A2867D",
"@ c #7C4536",
"# c #A9948D",
"$ c #733F31",
/* pixels */
" .    .......Xoo.   ......  ....      .......Xoo  ..      ......",
".........XXXXOooXX..........................XXoo..X.........X...",
"OX.....XXXXXOOooOOOOXXXX.X....XXOOXXX...XXXXOXo+OOXXOXXX.....XXX",
"XOXX....XXXXOOoo@OOXXXXXXXX.XXXOOXX...XXXXXXXOo+OXOXXOXXXX..XXXX",
"XXXXXXXX.XXXO@+oOOOXXXX..OXXXX.XXXXX.XXOXXXXX@++@OOXXOOXX.XXXOXX",
"OXOOXXOXXXXOXO+o@OOOXX..XXOXX.XXXOXXXXOXXOOXXOo+@OOXOOXXOXXXXXOX",
"XOOXXXXOOXXOO@++@OOOOXXXXXXXXXXOOXXXXXXXOOXXO@++OXOOXXXOOXOXXOOO",
"OOXOXOOOXXOOO@#+$@OXOOXXXXOXXXXXOOXXXXXXXXOOO@++OOXOXXXXOOXXXXOO",
"OOOOOOXOOOOO@$#+$@OOXXXOOOXXXOXXXXOXXOOOXXX@@$++@XXXOOXXXXXOOOOO",
"OOOOXXO@OO@@@$+#@@O@OXOOOXXXOOXXXOOOOXOOOXOO@@#+@OXO@OOXXXOXOOO@",
"O@OOOXO@@@$@@$##$@@OOOOXXOOXXOOOXXXXXOOOOO@@@$#+$OO@OOOXOXOOO@@@",
"@OO@OO@@@@@$@$##$$$@@OOOXXOOO@@XXOXXOO@@@@@@$$#+$@OOOOXXXOO@@@$@",
"$@@@@@@@@$$$$$##$$@@OO@OOOO@@OOOOO@@@@@@$$$@@$##$@@OO@OXOOOO$@$$",
"$$$$@@$$$$$$$$##$$$$@@OO@@@@@@OO@@O@@@$$$$$$$$##$$@@@OOOOO@@@$$$",
"ooooo++o++#######+##+o++oooooooooooooooo++++######+++o++oooooooo",
"ooooooooo#++######+oooooooooooooooooooooo+#######+#+oooooooooooo",
"  .   .X.     ..XX.XXX..    .Xoo.   .  ..    ....XXX..    ...Xoo",
"......X.XX........XXX..X....XOooOX..........X..XX.XXXXX.....XOoo",
"XX..XX.XX....XXXX...XXXXXX..XOoo@XX....XOXXXXX..XXXXXXXXX...X@o+",
"X..XX...XX..X.XX...XXXXXX..XXOo+@O.XX.XXXOXXXOXXOOXOXXXX..XXO@o+",
"OXXX..XX.XXXXXO.XXXX..XXXOX.OOo+OOXOXX..XXXOOXXOOOOXXXO.XXOXO@++",
"@XOXXX.XXXX.XOOOXXX.XXXXOOXXO@+o@OOXXXXXXXXXOOXXXOXXOOOOXXOOO$++",
"@OOXXXXXOX.XOXOXXXOXXXOXOOOXO@++@OOOOOOXXXOXXXX..XOXXOXXOOOO@$++",
"@OXXOXXOXXXXXXXXXOOOXXXOOXOOO@#+@@O@OOXOOXXOOXXX..XXXXOOO@OO@@+#",
"@OXOXXXOOXX..XXXXXXOOOXXXOOO@$#+@@@OXXOOXXOOOOOXXXXXOXXOOO@O@$+#",
"@@OOOXOOOOOX..OOXOOXOOOXOOOO@$##@$@OOXXXOOOXXOOOXXOOOOOOOO@@@$++",
"@@O@OOOXOOXXOOOOOOOOOOOO@OO@$@##$@@@OOOOOOXXOOXXOOO@@O@OO@@@$$#+",
"@@@OOOOOXOOXXO@OOOOOOOOOO@@@$$##$@$@OO@O@OOOXOOXXO@OOO@@@@@@$$#+",
"@@@@OOOOOOOOOOO@@@OOOOO@@$@@$$##$$$@@@@@OOOOOO@@OOOO@@@$$@@$$$##",
"@@@@@@OOOOOO@@@@@OOO@@@@@@$$$$##$$$$@$$@@@OO@@@OOO@@O@@@@$$$$$##",
"+++oooooooooooooooooo++o+++#+######++++ooooooooooooooooo+++#++##",
"++ooooooooooooooooooooooo+++####+++##+oooooooooooooooooooo++####",
"....XX.....XXXoo. . ......    ..XXX.....    .Xoo.   ..   .. ....",
"...X.XXX....XXooX....XX........X..OXX........XooX.......   .....",
".XXXXOXXXX.XOXo+OXX...XOOXXX.....XXOXXX.....XOo+OX...XX..    ..X",
"XXX.OOXOOXXXXOo+OXXXXXOOXXXXXX..XXXXXX....XXOOo+OXXX..XXXX...OX.",
"XX.XOXOOXOXXXO++OOXX.XXXOXX.XXXXOOXXX.XOOXOXO@++OOXXXX.XX...XXOX",
"OXXXXXXOXXXXXOo+OOXOOXOOXX.XXXOOOXOXXOOOXXXOO@++OXOX.XXXXXXX.OOX",
"XXXOXXX.XOOXOO+#OOOOXXXOOXXXXXXOXXXXXXOXXOXOOO#+OOOOX.XXXX.XXXOO",
"OXOXXX.XOOXXO@+#OOXOOOXOXXXXOXX.X.XOXXXXXOOOO@++OOOXXXOOX...XXOO",
"OOOX...XXXOXOO++@OOXOXXXXXOOXX...XXXOXXXXOOOO@+#@OXOXOOX..XXOXOO",
"OOXXX.XXXOOOO@+#@OOOOOXXOOOOXXXX..OXOOXOXXOO@@+#@OOOXXXOXXXOXOOO",
"OOOOXXXOOOO@O@+#@O@OOOOOOXXOOXOOOOOOOXXOOXOO@@##@OOOOXOXOOXOOO@O",
"OOOOOOXXOO@@@$+#@@@O@OOOOOXXOOOOOXXOOOOOXOO@@$##@@OOOOOXXOOOOOO@",
"@O@OOO@@OOO@@$#+@@@@OOOOOOO@OOXOXXOO@OOOO@@$@$##@@@@@OOOOOOO@@O@",
"@@OOOOO@@@@@$$##@@@@@@@@@O@@@OOXO@@@OOO@@O@@$$##@@@@O@@OOO@@@@@@",
"ooo+o+++++++#####+o+++oooooooooooooooooo++##+#####++++++oooooooo",
"ooooooo++++#####+ooo+ooooooooooooooooooooo++#####+++o+oooooooooo",
"X.....  .   . ....XX.......XXXoo.  ....   ....XOOXXXXXX.......o+",
"O...   ..........XX.XX...XXXXOooX.....  ...XXXXXOO.X.........Xoo",
"@X...   ...........XXXXX..X.XOooXXX.. ...XXOXOOXXXX....XX...X@o+",
"@OX....X.....XX.....XXXXXX..XX+oOX.XX.X...XXOOXOOXXX.XXX..XXO@o+",
"@OOXXXX..X.XX...X.XXXXXXX.XXOX+oOXXXXXOXXX..XXXXOOXXOOX.XOXXOO++",
"@@OOXX....XXXX.XXXXX.XOXOXXXXOo+OXXXXOXXX..XX..XOXOXXOOXOOXX@O++",
"@@O@OOOXX..XOOXOOXX.XXXOOOXXXO++@OXOXX.XXOOXOX..XXXXOO@OOXXOO@++",
"@$@OXOOOXXX.XOOXXXXXXXOOXXXXO@+#@OOXXXX.OOXXXOXXXOOXXXO@OXXOO@++",
"@$@OOXXXXXOXOXXXOOXXOOXXOOXOOO#+O@OOOXXXXXOXOOOOOOXXOOOOXXX@O$#+",
"$@@@OOXXOOXOXXXOOXXOXOOXXOOXO@##@@OOXXXOXXXOOOXOOOOOOO@OXXO@@$#+",
"$@@@@@@OOOOOOOXXOOOXXXOOOOOOO@##@@@OOOXXOOXXXOOXXXOOO@@OOO@@@$##",
"$@$@@@O@@O@@@@OOXOXXXOOOOOOO@$##$@O@@OOOOXXOOXXXOO@@OO@@OO@$@$##",
"$$$@@@@@@@$@@O@OO@@@$$@@OO@@@$##$$@@@@@@@@OOO@@O@@@@@@@@@$@$$$##",
"$$$$@@$$$$@@@@@@@@@$$@@$$@@@$$##$@$$@@@@@@@@$$@@$$$$@$@@@@$$$$##",
"++ooooooooooooooooooooo+o++++#####+++oo++oooooooooo++o+###+#####",
"oooooooooooooooooooooooooo++####++++++ooooooooooooooo+++###+####"
};
